# xmcd
#
# Track frame offsets: 
#        150
#        16110
#        38557
#        57062
#        75960
#        96827
#        118912
#        140285
#        160442
#        180295
#
# Disc length: 2628 seconds
#
# Revision: 2
# Processed by: cddbd v1.5.1PL0 Copyright (c) Steve Scherf et al.
# Submitted via: ExactAudioCopy v0.95a4
#
DISCID=6c0a420a
DTITLE=Melba Moore - A Lot Of Love
DYEAR=1986
DGENRE=R&B
TTITLE0=There I Go Falling In Love Again
TTITLE1=It's Been So Long
TTITLE2=I'm Not Gonna Let You Go
TTITLE3=Love The One I'm With (A Lot Of Love)
TTITLE4=You Trip Me Out
TTITLE5=A Little Bit More
TTITLE6=Falling
TTITLE7=Stay
TTITLE8=When We Touch (It's Like Fire)
TTITLE9=Don't Go Away
EXTD=
EXTT0=
EXTT1=
EXTT2=
EXTT3=
EXTT4=
EXTT5=
EXTT6=
EXTT7=
EXTT8=
EXTT9=
PLAYORDER=
